<mxfile host="app.diagrams.net" modified="2024-03-06T02:33:28.117Z" agent="Mozilla/5.0 (Windows NT 10.0; Win64; x64) AppleWebKit/537.36 (KHTML, like Gecko) Chrome/122.0.0.0 Safari/537.36" etag="q46lP2kkKMlY-E6ZltFT" version="24.0.1" type="github">
  <diagram name="第 1 页" id="2zBS8sqp2I8gh6nC8CcG">
    <mxGraphModel dx="1050" dy="539" grid="1" gridSize="10" guides="1" tooltips="1" connect="1" arrows="1" fold="1" page="1" pageScale="1" pageWidth="827" pageHeight="1169" math="0" shadow="0">
      <root>
        <mxCell id="0" />
        <mxCell id="1" parent="0" />
        <mxCell id="cxE7ScMe8aT8yFEXVv-V-5" value="" style="group;fillColor=#dae8fc;strokeColor=#6c8ebf;" vertex="1" connectable="0" parent="1">
          <mxGeometry x="610" y="130" width="120" height="120" as="geometry" />
        </mxCell>
        <mxCell id="cxE7ScMe8aT8yFEXVv-V-6" value="内存地址0xc00000c360" style="rounded=0;whiteSpace=wrap;html=1;fillColor=#ffe6cc;strokeColor=#d79b00;" vertex="1" parent="cxE7ScMe8aT8yFEXVv-V-5">
          <mxGeometry width="120" height="60" as="geometry" />
        </mxCell>
        <mxCell id="cxE7ScMe8aT8yFEXVv-V-7" value="[ ]int{1,2,3}" style="rounded=0;whiteSpace=wrap;html=1;fillColor=#dae8fc;strokeColor=#6c8ebf;" vertex="1" parent="cxE7ScMe8aT8yFEXVv-V-5">
          <mxGeometry y="60" width="120" height="60" as="geometry" />
        </mxCell>
        <mxCell id="cxE7ScMe8aT8yFEXVv-V-8" value="" style="group;fillColor=#dae8fc;strokeColor=#6c8ebf;" vertex="1" connectable="0" parent="1">
          <mxGeometry x="390" y="135.5" width="80" height="109" as="geometry" />
        </mxCell>
        <mxCell id="cxE7ScMe8aT8yFEXVv-V-9" value="len" style="rounded=0;whiteSpace=wrap;html=1;fillColor=#dae8fc;strokeColor=#6c8ebf;" vertex="1" parent="cxE7ScMe8aT8yFEXVv-V-8">
          <mxGeometry y="36.666666666666686" width="80" height="36.66666666666667" as="geometry" />
        </mxCell>
        <mxCell id="cxE7ScMe8aT8yFEXVv-V-10" value="p" style="rounded=0;whiteSpace=wrap;html=1;fillColor=#dae8fc;strokeColor=#6c8ebf;" vertex="1" parent="cxE7ScMe8aT8yFEXVv-V-8">
          <mxGeometry width="80" height="36.66666666666667" as="geometry" />
        </mxCell>
        <mxCell id="cxE7ScMe8aT8yFEXVv-V-11" value="cap" style="rounded=0;whiteSpace=wrap;html=1;fillColor=#dae8fc;strokeColor=#6c8ebf;" vertex="1" parent="cxE7ScMe8aT8yFEXVv-V-8">
          <mxGeometry y="72.33333333333334" width="80" height="36.66666666666667" as="geometry" />
        </mxCell>
        <mxCell id="cxE7ScMe8aT8yFEXVv-V-12" style="edgeStyle=orthogonalEdgeStyle;rounded=0;orthogonalLoop=1;jettySize=auto;html=1;entryX=0.013;entryY=0.383;entryDx=0;entryDy=0;entryPerimeter=0;" edge="1" parent="1" source="cxE7ScMe8aT8yFEXVv-V-10" target="cxE7ScMe8aT8yFEXVv-V-6">
          <mxGeometry relative="1" as="geometry" />
        </mxCell>
        <mxCell id="cxE7ScMe8aT8yFEXVv-V-14" value="main 中的 slice2" style="text;html=1;align=center;verticalAlign=middle;whiteSpace=wrap;rounded=0;" vertex="1" parent="1">
          <mxGeometry x="400" y="90" width="100" height="30" as="geometry" />
        </mxCell>
        <mxCell id="cxE7ScMe8aT8yFEXVv-V-16" value="只传递了参数，但是还没有进行 append" style="text;html=1;align=center;verticalAlign=middle;whiteSpace=wrap;rounded=0;" vertex="1" parent="1">
          <mxGeometry x="80" y="50" width="250" height="30" as="geometry" />
        </mxCell>
        <mxCell id="cxE7ScMe8aT8yFEXVv-V-21" value="" style="group;fillColor=#dae8fc;strokeColor=#6c8ebf;" vertex="1" connectable="0" parent="1">
          <mxGeometry x="660" y="400" width="120" height="120" as="geometry" />
        </mxCell>
        <mxCell id="cxE7ScMe8aT8yFEXVv-V-22" value="内存地址0xc00000c362" style="rounded=0;whiteSpace=wrap;html=1;fillColor=#ffe6cc;strokeColor=#d79b00;" vertex="1" parent="cxE7ScMe8aT8yFEXVv-V-21">
          <mxGeometry width="120" height="60" as="geometry" />
        </mxCell>
        <mxCell id="cxE7ScMe8aT8yFEXVv-V-23" value="[ ]int{1,2,3,1,3,4,6,5}" style="rounded=0;whiteSpace=wrap;html=1;fillColor=#dae8fc;strokeColor=#6c8ebf;" vertex="1" parent="cxE7ScMe8aT8yFEXVv-V-21">
          <mxGeometry y="60" width="120" height="60" as="geometry" />
        </mxCell>
        <mxCell id="cxE7ScMe8aT8yFEXVv-V-24" value="" style="group;fillColor=#dae8fc;strokeColor=#6c8ebf;" vertex="1" connectable="0" parent="1">
          <mxGeometry x="390" y="405.5" width="80" height="109" as="geometry" />
        </mxCell>
        <mxCell id="cxE7ScMe8aT8yFEXVv-V-25" value="len" style="rounded=0;whiteSpace=wrap;html=1;fillColor=#dae8fc;strokeColor=#6c8ebf;" vertex="1" parent="cxE7ScMe8aT8yFEXVv-V-24">
          <mxGeometry y="36.666666666666686" width="80" height="36.66666666666667" as="geometry" />
        </mxCell>
        <mxCell id="cxE7ScMe8aT8yFEXVv-V-26" value="p" style="rounded=0;whiteSpace=wrap;html=1;fillColor=#dae8fc;strokeColor=#6c8ebf;" vertex="1" parent="cxE7ScMe8aT8yFEXVv-V-24">
          <mxGeometry width="80" height="36.66666666666667" as="geometry" />
        </mxCell>
        <mxCell id="cxE7ScMe8aT8yFEXVv-V-27" value="cap" style="rounded=0;whiteSpace=wrap;html=1;fillColor=#dae8fc;strokeColor=#6c8ebf;" vertex="1" parent="cxE7ScMe8aT8yFEXVv-V-24">
          <mxGeometry y="72.33333333333334" width="80" height="36.66666666666667" as="geometry" />
        </mxCell>
        <mxCell id="cxE7ScMe8aT8yFEXVv-V-28" style="edgeStyle=orthogonalEdgeStyle;rounded=0;orthogonalLoop=1;jettySize=auto;html=1;entryX=0.013;entryY=0.383;entryDx=0;entryDy=0;entryPerimeter=0;" edge="1" parent="1" source="cxE7ScMe8aT8yFEXVv-V-26" target="cxE7ScMe8aT8yFEXVv-V-22">
          <mxGeometry relative="1" as="geometry" />
        </mxCell>
        <mxCell id="cxE7ScMe8aT8yFEXVv-V-30" value="main 中的 slice2" style="text;html=1;align=center;verticalAlign=middle;whiteSpace=wrap;rounded=0;" vertex="1" parent="1">
          <mxGeometry x="410" y="360" width="100" height="30" as="geometry" />
        </mxCell>
        <mxCell id="cxE7ScMe8aT8yFEXVv-V-32" value="进行 append 之后" style="text;html=1;align=center;verticalAlign=middle;whiteSpace=wrap;rounded=0;" vertex="1" parent="1">
          <mxGeometry x="35" y="290" width="250" height="30" as="geometry" />
        </mxCell>
        <mxCell id="cxE7ScMe8aT8yFEXVv-V-36" value="" style="group;fillColor=#dae8fc;strokeColor=#6c8ebf;" vertex="1" connectable="0" parent="1">
          <mxGeometry x="120" y="135.5" width="80" height="109" as="geometry" />
        </mxCell>
        <mxCell id="cxE7ScMe8aT8yFEXVv-V-37" value="len" style="rounded=0;whiteSpace=wrap;html=1;fillColor=#dae8fc;strokeColor=#6c8ebf;" vertex="1" parent="cxE7ScMe8aT8yFEXVv-V-36">
          <mxGeometry y="36.666666666666686" width="80" height="36.66666666666667" as="geometry" />
        </mxCell>
        <mxCell id="cxE7ScMe8aT8yFEXVv-V-38" value="p" style="rounded=0;whiteSpace=wrap;html=1;fillColor=#dae8fc;strokeColor=#6c8ebf;" vertex="1" parent="cxE7ScMe8aT8yFEXVv-V-36">
          <mxGeometry width="80" height="36.66666666666667" as="geometry" />
        </mxCell>
        <mxCell id="cxE7ScMe8aT8yFEXVv-V-39" value="cap" style="rounded=0;whiteSpace=wrap;html=1;fillColor=#dae8fc;strokeColor=#6c8ebf;" vertex="1" parent="cxE7ScMe8aT8yFEXVv-V-36">
          <mxGeometry y="72.33333333333334" width="80" height="36.66666666666667" as="geometry" />
        </mxCell>
        <mxCell id="cxE7ScMe8aT8yFEXVv-V-40" value="change 中的 aa" style="text;html=1;align=center;verticalAlign=middle;whiteSpace=wrap;rounded=0;" vertex="1" parent="1">
          <mxGeometry x="75" y="90" width="110" height="30" as="geometry" />
        </mxCell>
        <mxCell id="cxE7ScMe8aT8yFEXVv-V-41" style="edgeStyle=orthogonalEdgeStyle;rounded=0;orthogonalLoop=1;jettySize=auto;html=1;entryX=0;entryY=0.5;entryDx=0;entryDy=0;" edge="1" parent="1" source="cxE7ScMe8aT8yFEXVv-V-38" target="cxE7ScMe8aT8yFEXVv-V-10">
          <mxGeometry relative="1" as="geometry" />
        </mxCell>
        <mxCell id="cxE7ScMe8aT8yFEXVv-V-43" value="" style="group;fillColor=#dae8fc;strokeColor=#6c8ebf;" vertex="1" connectable="0" parent="1">
          <mxGeometry x="105" y="405.5" width="80" height="109" as="geometry" />
        </mxCell>
        <mxCell id="cxE7ScMe8aT8yFEXVv-V-44" value="len" style="rounded=0;whiteSpace=wrap;html=1;fillColor=#dae8fc;strokeColor=#6c8ebf;" vertex="1" parent="cxE7ScMe8aT8yFEXVv-V-43">
          <mxGeometry y="36.666666666666686" width="80" height="36.66666666666667" as="geometry" />
        </mxCell>
        <mxCell id="cxE7ScMe8aT8yFEXVv-V-45" value="p" style="rounded=0;whiteSpace=wrap;html=1;fillColor=#dae8fc;strokeColor=#6c8ebf;" vertex="1" parent="cxE7ScMe8aT8yFEXVv-V-43">
          <mxGeometry width="80" height="36.66666666666667" as="geometry" />
        </mxCell>
        <mxCell id="cxE7ScMe8aT8yFEXVv-V-46" value="cap" style="rounded=0;whiteSpace=wrap;html=1;fillColor=#dae8fc;strokeColor=#6c8ebf;" vertex="1" parent="cxE7ScMe8aT8yFEXVv-V-43">
          <mxGeometry y="72.33333333333334" width="80" height="36.66666666666667" as="geometry" />
        </mxCell>
        <mxCell id="cxE7ScMe8aT8yFEXVv-V-47" value="change 中的 aa" style="text;html=1;align=center;verticalAlign=middle;whiteSpace=wrap;rounded=0;" vertex="1" parent="1">
          <mxGeometry x="90" y="340" width="150" height="30" as="geometry" />
        </mxCell>
        <mxCell id="cxE7ScMe8aT8yFEXVv-V-48" style="edgeStyle=orthogonalEdgeStyle;rounded=0;orthogonalLoop=1;jettySize=auto;html=1;entryX=0;entryY=0.5;entryDx=0;entryDy=0;" edge="1" parent="1" source="cxE7ScMe8aT8yFEXVv-V-45" target="cxE7ScMe8aT8yFEXVv-V-26">
          <mxGeometry relative="1" as="geometry" />
        </mxCell>
      </root>
    </mxGraphModel>
  </diagram>
</mxfile>
